<?xml version="1.0" standalone="no"?>
<!DOCTYPE svg PUBLIC "-//W3C//DTD SVG 20010904//EN"
 "http://www.w3.org/TR/2001/REC-SVG-20010904/DTD/svg10.dtd">
<svg version="1.0" xmlns="http://www.w3.org/2000/svg"
 width="200.000000pt" height="200.000000pt" viewBox="0 0 200.000000 200.000000"
 preserveAspectRatio="xMidYMid meet">

<g transform="translate(0.000000,200.000000) scale(0.100000,-0.100000)"
fill="#000000" stroke="none">
<path d="M100 1034 l0 -75 43 3 c45 3 54 21 12 26 -24 3 -25 7 -25 63 0 46 -3
59 -15 59 -12 0 -15 -15 -15 -76z"/>
<path d="M212 1038 l3 -73 49 0 c31 0 51 5 54 13 2 8 -9 12 -37 12 -34 0 -41
3 -41 20 0 16 7 20 35 20 19 0 35 5 35 10 0 6 -16 10 -35 10 -28 0 -35 4 -35
20 0 17 7 20 40 20 22 0 40 5 40 10 0 6 -25 10 -55 10 l-56 0 3 -72z"/>
<path d="M381 1088 c-5 -13 -18 -44 -30 -70 -11 -26 -16 -50 -11 -53 5 -3 11
-1 15 5 9 14 58 13 73 -2 25 -25 23 3 -3 71 -16 39 -30 71 -32 71 -2 0 -7 -10
-12 -22z m28 -80 c1 -5 -6 -8 -14 -8 -16 0 -19 9 -8 36 6 16 7 16 14 -2 4 -10
8 -22 8 -26z"/>
<path d="M472 1038 c4 -88 25 -107 30 -26 l3 53 39 -53 c21 -29 43 -51 50 -49
6 2 12 33 14 75 2 60 0 72 -13 72 -12 0 -15 -12 -15 -52 l0 -52 -37 52 c-21
28 -46 52 -56 52 -16 0 -18 -8 -15 -72z"/>
<path d="M642 1038 l3 -73 39 2 c50 3 76 27 76 70 0 46 -29 73 -80 73 l-41 0
3 -72z m78 32 c11 -11 20 -23 20 -28 0 -18 -33 -52 -51 -52 -16 0 -19 7 -19
50 0 56 15 65 50 30z"/>
<path d="M794 1095 c3 -8 9 -22 12 -30 3 -8 1 -15 -6 -15 -15 0 -9 -82 8 -88
8 -2 12 9 12 35 l1 38 34 -40 c36 -43 59 -42 31 1 -16 23 -16 27 -2 43 35 39
12 71 -52 71 -35 0 -43 -3 -38 -15z m71 -15 c11 -17 -5 -32 -21 -19 -8 6 -14
15 -14 20 0 12 27 11 35 -1z"/>
<path d="M941 1096 c-21 -25 -9 -69 22 -84 24 -12 31 -11 53 2 26 18 33 63 12
84 -17 17 -73 15 -87 -2z m68 -20 c15 -18 4 -46 -19 -46 -28 0 -45 27 -30 45
16 19 34 19 49 1z"/>
<path d="M1160 1036 c0 -74 1 -76 24 -76 46 0 76 18 76 45 0 14 -5 25 -10 25
-6 0 -5 8 2 20 20 31 -1 54 -51 58 l-41 3 0 -75z m68 32 c3 -13 -3 -18 -22
-18 -20 0 -26 5 -26 21 0 15 5 20 22 17 13 -2 24 -11 26 -20z m1 -51 c6 -8 8
-17 4 -20 -12 -12 -53 -7 -53 6 0 28 30 37 49 14z"/>
<path d="M1306 1040 c-27 -69 -29 -97 -4 -72 7 7 24 12 38 12 14 0 31 -5 38
-12 24 -24 22 1 -4 63 -15 35 -30 68 -34 72 -4 4 -19 -24 -34 -63z m44 -27 c0
-7 -7 -13 -16 -13 -11 0 -14 5 -10 16 3 9 6 21 6 27 0 16 20 -14 20 -30z"/>
<path d="M1420 1035 c0 -82 0 -82 62 -65 61 17 77 72 33 115 -16 17 -35 25
-60 25 l-35 0 0 -75z m71 45 c37 -20 19 -90 -23 -90 -15 0 -18 9 -18 50 0 52
7 58 41 40z"/>
<path d="M1570 1034 l0 -75 50 3 c59 4 71 22 18 26 -30 3 -38 7 -38 23 0 14 7
19 30 19 17 0 30 5 30 10 0 6 -13 10 -30 10 -23 0 -30 4 -30 20 0 17 7 20 41
20 24 0 38 4 34 10 -3 6 -28 10 -56 10 l-49 0 0 -76z"/>
<path d="M1704 1095 c3 -8 9 -22 12 -30 3 -8 1 -15 -6 -15 -15 0 -9 -82 8 -88
8 -2 12 9 12 35 l1 38 34 -40 c36 -43 59 -42 31 1 -16 23 -16 27 -2 43 35 39
12 71 -52 71 -35 0 -43 -3 -38 -15z m71 -15 c11 -17 -5 -32 -21 -19 -8 6 -14
15 -14 20 0 12 27 11 35 -1z"/>
<path d="M933 978 c2 -8 22 -13 52 -13 30 0 50 5 53 13 3 9 -12 12 -53 12 -41
0 -56 -3 -52 -12z"/>
</g>
</svg>
